#N canvas 196 183 722 466 10;
#X obj 537 37 loadbang;
#X obj 537 63 delay 300;
#X msg 537 89 \; pd dsp 1 \;;
#X obj 282 178 f;
#X obj 317 178 + 1;
#X obj 282 211 % 2;
#X floatatom 282 241 5 0 0 0 - - -;
#X obj 235 313 tedium_output 0 0;
#X obj 328 34 tedium_input 4;
#X text 323 11 gate inputs #0-3:;
#X obj 176 52 tedium_input 23;
#X obj 177 87 tedium_input 24;
#X obj 178 123 tedium_input 25;
#X text 163 24 tact switches #0-2:;
#X obj 329 63 tedium_input 17;
#X obj 329 93 tedium_input 2;
#X obj 329 122 tedium_input 3;
#X obj 180 297 osc~;
#X obj 177 274 * 100;
#X obj 178 336 dac~;
#X obj 396 194 adc~;
#X obj 392 257 bonk~;
#X obj 430 303 f;
#X obj 465 303 + 1;
#X obj 430 336 % 2;
#X floatatom 430 366 5 0 0 0 - - -;
#X obj 464 259 dac~;
#X obj 446 236 *~ 0.15;
#X obj 494 236 *~ 0.15;
#X connect 0 0 1 0;
#X connect 1 0 2 0;
#X connect 3 0 4 0;
#X connect 3 0 5 0;
#X connect 4 0 3 1;
#X connect 5 0 6 0;
#X connect 6 0 18 0;
#X connect 8 0 3 0;
#X connect 10 0 3 0;
#X connect 11 0 3 0;
#X connect 12 0 3 0;
#X connect 14 0 3 0;
#X connect 15 0 3 0;
#X connect 16 0 3 0;
#X connect 18 0 17 0;
#X connect 20 0 21 0;
#X connect 20 0 27 0;
#X connect 20 1 28 0;
#X connect 21 0 22 0;
#X connect 22 0 23 0;
#X connect 22 0 24 0;
#X connect 23 0 22 1;
#X connect 24 0 25 0;
#X connect 25 0 7 1;
#X connect 25 0 7 2;
#X connect 27 0 26 0;
#X connect 28 0 26 1;
