#N canvas 504 179 598 453 10;
#X obj 404 130 metro 580;
#X obj 432 152 delay 120;
#X msg 432 173 0;
#X obj 358 194 noise~;
#X obj 388 217 *~;
#X msg 403 173 1;
#X msg 314 173 0;
#X obj 270 217 *~;
#X msg 285 173 1;
#X obj 286 130 metro 700;
#X obj 314 152 delay 200;
#X obj 226 194 osc~ 400;
#X obj 270 245 freeverb~;
#X obj 287 271 dac~;
#X obj 316 103 loadbang;
#X obj 142 185 adc~;
#X connect 0 0 1 0;
#X connect 0 0 5 0;
#X connect 1 0 2 0;
#X connect 2 0 4 1;
#X connect 3 0 4 0;
#X connect 4 0 12 1;
#X connect 5 0 4 1;
#X connect 6 0 7 1;
#X connect 7 0 12 0;
#X connect 8 0 7 1;
#X connect 9 0 8 0;
#X connect 9 0 10 0;
#X connect 10 0 6 0;
#X connect 11 0 7 0;
#X connect 12 0 13 0;
#X connect 12 1 13 1;
#X connect 14 0 0 0;
#X connect 14 0 9 0;
#X connect 15 0 12 0;
#X connect 15 1 12 1;
